<?xml version="1.0" encoding="utf-8"?>
<!-- Generator: Adobe Illustrator 26.3.1, SVG Export Plug-In . SVG Version: 6.00 Build 0)  -->
<svg version="1.1" id="Layer_1" xmlns="http://www.w3.org/2000/svg" xmlns:xlink="http://www.w3.org/1999/xlink" x="0px" y="0px"
	 width="32px" height="32px" viewBox="0 0 32 32" style="enable-background:new 0 0 32 32;" xml:space="preserve">
<style type="text/css">
	.st0{fill:none;}
	.st1{fill:url(#SVGID_1_);}
	.st2{fill:url(#SVGID_00000183208327914799705780000007259624669265610368_);}
	.st3{fill:url(#SVGID_00000092440289566412510330000018381878908386168968_);}
</style>
<g>
	<rect class="st0" width="32" height="32"/>
	<g>
		<linearGradient id="SVGID_1_" gradientUnits="userSpaceOnUse" x1="17.0233" y1="-0.3989" x2="17.0233" y2="30.6643">
			<stop  offset="0" style="stop-color:#FFFFFF"/>
			<stop  offset="0.1402" style="stop-color:#CFCBEE"/>
			<stop  offset="0.3008" style="stop-color:#9E97DD"/>
			<stop  offset="0.4589" style="stop-color:#766CCF"/>
			<stop  offset="0.6108" style="stop-color:#574BC4"/>
			<stop  offset="0.755" style="stop-color:#4033BC"/>
			<stop  offset="0.8882" style="stop-color:#3324B8"/>
			<stop  offset="1" style="stop-color:#2E1FB6"/>
		</linearGradient>
		<path class="st1" d="M18.78,2.84c0.06-0.14,0.11-0.25,0.15-0.36c0.1-0.27,0.27-0.47,0.58-0.47c0.32,0,0.5,0.2,0.6,0.49
			c0.41,1.12,0.81,2.24,1.25,3.35c0.07,0.18,0.26,0.37,0.43,0.44c1.1,0.43,2.2,0.83,3.31,1.24c0.3,0.11,0.53,0.27,0.53,0.61
			c0,0.34-0.24,0.5-0.54,0.61c-0.77,0.28-1.53,0.58-2.31,0.85c-0.28,0.09-0.36,0.23-0.36,0.51c0.01,2.52,0.02,5.03,0,7.55
			c-0.01,2.65-1.14,4.72-3.4,6.09c-4.22,2.57-9.68,0.03-10.48-4.85c-0.07-0.4-0.11-0.82-0.11-1.22c-0.01-2.86-0.02-5.72,0-8.58
			c0.02-3.14,1.83-5.69,4.78-6.71c1.76-0.61,3.49-0.47,5.18,0.29C18.51,2.73,18.63,2.78,18.78,2.84z M19.46,11.84
			c0.03,0,0.07,0,0.1,0c0.24-0.65,0.52-1.29,0.72-1.96c0.16-0.54,0.47-0.83,1.01-0.99c0.66-0.2,1.3-0.48,2.06-0.76
			c-0.77-0.29-1.41-0.57-2.07-0.76c-0.54-0.16-0.84-0.47-1-1c-0.2-0.66-0.48-1.3-0.76-2.06c-0.29,0.76-0.56,1.41-0.76,2.07
			c-0.16,0.54-0.46,0.84-1,1c-0.66,0.2-1.3,0.47-1.95,0.72c0.67,0.34,1.32,0.61,2,0.82c0.49,0.15,0.78,0.43,0.93,0.92
			C18.94,10.51,19.21,11.17,19.46,11.84z M14.27,15.69c0.22-0.59,0.42-1.07,0.57-1.55c0.08-0.25,0.23-0.39,0.48-0.47
			c0.49-0.16,0.96-0.35,1.55-0.57c-0.58-0.22-1.04-0.4-1.52-0.56c-0.28-0.09-0.44-0.23-0.53-0.52c-0.15-0.47-0.34-0.93-0.56-1.51
			c-0.23,0.6-0.39,1.1-0.61,1.57c-0.08,0.17-0.24,0.34-0.41,0.41c-0.48,0.21-0.98,0.38-1.58,0.6c0.58,0.22,1.04,0.4,1.51,0.56
			c0.25,0.09,0.42,0.21,0.51,0.49C13.85,14.63,14.05,15.1,14.27,15.69z"/>
		
			<linearGradient id="SVGID_00000006687954557949571220000010504072830378852260_" gradientUnits="userSpaceOnUse" x1="15.4327" y1="-0.3989" x2="15.4327" y2="30.6643">
			<stop  offset="0" style="stop-color:#FFFFFF"/>
			<stop  offset="1" style="stop-color:#2E1FB6"/>
		</linearGradient>
		<path style="fill:url(#SVGID_00000006687954557949571220000010504072830378852260_);" d="M14.84,28.84c0-0.55-0.01-1.04,0-1.53
			c0-0.27-0.18-0.24-0.35-0.26c-2.49-0.29-4.58-1.36-6.2-3.28c-1.43-1.69-2.15-3.66-2.19-5.87c-0.01-0.38-0.01-0.77,0-1.15
			c0.01-0.47,0.24-0.74,0.6-0.73c0.35,0.01,0.56,0.28,0.57,0.72c0.02,0.69,0.01,1.38,0.08,2.06c0.34,3.31,3.02,6.25,6.29,6.92
			c4.22,0.87,8.14-1.35,9.54-5.42c0.35-1,0.44-2.04,0.41-3.09c-0.01-0.2-0.01-0.4,0-0.6c0.02-0.36,0.26-0.59,0.57-0.6
			c0.31,0,0.58,0.23,0.59,0.58c0.04,1.25,0.03,2.5-0.35,3.7c-1.09,3.51-3.44,5.69-6.99,6.59c-0.43,0.11-0.89,0.14-1.4,0.22
			c0,0.28,0,0.56,0,0.85c0,0.28,0,0.55,0,0.87c0.17,0.01,0.31,0.02,0.45,0.02c0.78,0,1.56,0,2.35,0c0.44,0,0.7,0.24,0.7,0.59
			C19.5,29.77,19.25,30,18.83,30c-2.27,0-4.53,0-6.8,0c-0.42,0-0.67-0.22-0.68-0.56c-0.01-0.36,0.25-0.59,0.69-0.59
			c0.77-0.01,1.54,0,2.31,0C14.49,28.84,14.63,28.84,14.84,28.84z"/>
		
			<linearGradient id="SVGID_00000039852630136467336420000016435407575613751476_" gradientUnits="userSpaceOnUse" x1="24.1664" y1="-0.3989" x2="24.1664" y2="30.6643">
			<stop  offset="0" style="stop-color:#FFFFFF"/>
			<stop  offset="1" style="stop-color:#2E1FB6"/>
		</linearGradient>
		<path style="fill:url(#SVGID_00000039852630136467336420000016435407575613751476_);" d="M23.55,3.76
			c0.14-0.99,0.25-1.17,0.66-1.15c0.4,0.02,0.51,0.24,0.58,1.11c0.44,0.1,1.12-0.12,1.12,0.69c0,0.37-0.24,0.48-1.14,0.55
			c0,0.16,0.01,0.32,0,0.49c-0.02,0.4-0.26,0.65-0.6,0.65c-0.33-0.01-0.59-0.25-0.56-0.63c0.04-0.45-0.13-0.56-0.56-0.54
			c-0.38,0.02-0.62-0.25-0.62-0.58c0-0.33,0.25-0.56,0.63-0.58C23.21,3.75,23.37,3.76,23.55,3.76z"/>
	</g>
</g>
</svg>
