<svg xmlns="http://www.w3.org/2000/svg" xmlns:xlink="http://www.w3.org/1999/xlink" width="2000" zoomAndPan="magnify" viewBox="0 0 1500 1499.999933" height="2000" preserveAspectRatio="xMidYMid meet" version="1.0"><defs><filter x="0%" y="0%" width="100%" height="100%" id="ecf23666ca"><feColorMatrix values="0 0 0 0 1 0 0 0 0 1 0 0 0 0 1 0 0 0 1 0" color-interpolation-filters="sRGB"/></filter><g/><clipPath id="78cf30c914"><path d="M 258.652344 462.476562 L 1241.148438 462.476562 L 1241.148438 933.476562 L 258.652344 933.476562 Z M 258.652344 462.476562 " clip-rule="nonzero"/></clipPath><clipPath id="4c8ddc330b"><path d="M 0.652344 0.476562 L 983.148438 0.476562 L 983.148438 471.476562 L 0.652344 471.476562 Z M 0.652344 0.476562 " clip-rule="nonzero"/></clipPath><clipPath id="feaa58b213"><path d="M 0.652344 17.726562 L 957.648438 17.726562 L 957.648438 453.476562 L 0.652344 453.476562 Z M 0.652344 17.726562 " clip-rule="nonzero"/></clipPath><linearGradient x1="-232.59599" gradientTransform="matrix(0.749976, 0, 0, 0.749752, 175.093678, 174.873148)" y1="81" x2="1043.44002" gradientUnits="userSpaceOnUse" y2="81" id="1542819dae"><stop stop-opacity="1" stop-color="rgb(0%, 0%, 0%)" offset="0"/><stop stop-opacity="1" stop-color="rgb(0%, 0%, 0%)" offset="0.125"/><stop stop-opacity="1" stop-color="rgb(0%, 0%, 0%)" offset="0.15625"/><stop stop-opacity="1" stop-color="rgb(0%, 0%, 0%)" offset="0.171875"/><stop stop-opacity="1" stop-color="rgb(0%, 0%, 0%)" offset="0.179688"/><stop stop-opacity="1" stop-color="rgb(0.0839233%, 0.0808716%, 0.32959%)" offset="0.183594"/><stop stop-opacity="1" stop-color="rgb(0.169373%, 0.163269%, 0.65918%)" offset="0.1875"/><stop stop-opacity="1" stop-color="rgb(0.297546%, 0.285339%, 1.153564%)" offset="0.191406"/><stop stop-opacity="1" stop-color="rgb(0.42572%, 0.408936%, 1.647949%)" offset="0.195312"/><stop stop-opacity="1" stop-color="rgb(0.552368%, 0.531006%, 2.142334%)" offset="0.199219"/><stop stop-opacity="1" stop-color="rgb(0.680542%, 0.654602%, 2.636719%)" offset="0.203125"/><stop stop-opacity="1" stop-color="rgb(0.808716%, 0.778198%, 3.129578%)" offset="0.207031"/><stop stop-opacity="1" stop-color="rgb(0.93689%, 0.901794%, 3.623962%)" offset="0.210938"/><stop stop-opacity="1" stop-color="rgb(1.063538%, 1.023865%, 4.118347%)" offset="0.214844"/><stop stop-opacity="1" stop-color="rgb(1.191711%, 1.147461%, 4.612732%)" offset="0.21875"/><stop stop-opacity="1" stop-color="rgb(1.319885%, 1.269531%, 5.107117%)" offset="0.222656"/><stop stop-opacity="1" stop-color="rgb(1.448059%, 1.393127%, 5.601501%)" offset="0.226563"/><stop stop-opacity="1" stop-color="rgb(1.574707%, 1.515198%, 6.095886%)" offset="0.230469"/><stop stop-opacity="1" stop-color="rgb(1.702881%, 1.638794%, 6.590271%)" offset="0.234375"/><stop stop-opacity="1" stop-color="rgb(1.829529%, 1.760864%, 7.08313%)" offset="0.238281"/><stop stop-opacity="1" stop-color="rgb(1.957703%, 1.88446%, 7.577515%)" offset="0.242188"/><stop stop-opacity="1" stop-color="rgb(2.085876%, 2.006531%, 8.071899%)" offset="0.246094"/><stop stop-opacity="1" stop-color="rgb(2.21405%, 2.130127%, 8.566284%)" offset="0.25"/><stop stop-opacity="1" stop-color="rgb(2.340698%, 2.253723%, 9.060669%)" offset="0.253906"/><stop stop-opacity="1" stop-color="rgb(2.468872%, 2.377319%, 9.555054%)" offset="0.257812"/><stop stop-opacity="1" stop-color="rgb(2.597046%, 2.49939%, 10.049438%)" offset="0.261719"/><stop stop-opacity="1" stop-color="rgb(2.72522%, 2.622986%, 10.543823%)" offset="0.265625"/><stop stop-opacity="1" stop-color="rgb(2.851868%, 2.745056%, 11.036682%)" offset="0.269531"/><stop stop-opacity="1" stop-color="rgb(2.980042%, 2.868652%, 11.531067%)" offset="0.273438"/><stop stop-opacity="1" stop-color="rgb(3.108215%, 2.990723%, 12.025452%)" offset="0.277344"/><stop stop-opacity="1" stop-color="rgb(3.236389%, 3.114319%, 12.519836%)" offset="0.28125"/><stop stop-opacity="1" stop-color="rgb(3.363037%, 3.236389%, 13.014221%)" offset="0.285156"/><stop stop-opacity="1" stop-color="rgb(3.491211%, 3.359985%, 13.508606%)" offset="0.289062"/><stop stop-opacity="1" stop-color="rgb(3.617859%, 3.482056%, 14.002991%)" offset="0.292969"/><stop stop-opacity="1" stop-color="rgb(3.746033%, 3.605652%, 14.497375%)" offset="0.296875"/><stop stop-opacity="1" stop-color="rgb(3.874207%, 3.727722%, 14.990234%)" offset="0.300781"/><stop stop-opacity="1" stop-color="rgb(4.00238%, 3.851318%, 15.484619%)" offset="0.304688"/><stop stop-opacity="1" stop-color="rgb(4.129028%, 3.974915%, 15.979004%)" offset="0.308594"/><stop stop-opacity="1" stop-color="rgb(4.257202%, 4.098511%, 16.473389%)" offset="0.3125"/><stop stop-opacity="1" stop-color="rgb(4.385376%, 4.220581%, 16.967773%)" offset="0.316406"/><stop stop-opacity="1" stop-color="rgb(4.51355%, 4.344177%, 17.462158%)" offset="0.320312"/><stop stop-opacity="1" stop-color="rgb(4.640198%, 4.466248%, 17.956543%)" offset="0.324219"/><stop stop-opacity="1" stop-color="rgb(4.768372%, 4.589844%, 18.450928%)" offset="0.328125"/><stop stop-opacity="1" stop-color="rgb(4.896545%, 4.711914%, 18.943787%)" offset="0.332031"/><stop stop-opacity="1" stop-color="rgb(5.024719%, 4.83551%, 19.438171%)" offset="0.335938"/><stop stop-opacity="1" stop-color="rgb(5.151367%, 4.957581%, 19.932556%)" offset="0.339844"/><stop stop-opacity="1" stop-color="rgb(5.279541%, 5.081177%, 20.426941%)" offset="0.34375"/><stop stop-opacity="1" stop-color="rgb(5.406189%, 5.203247%, 20.921326%)" offset="0.347656"/><stop stop-opacity="1" stop-color="rgb(5.534363%, 5.326843%, 21.41571%)" offset="0.351562"/><stop stop-opacity="1" stop-color="rgb(5.662537%, 5.448914%, 21.908569%)" offset="0.355469"/><stop stop-opacity="1" stop-color="rgb(5.79071%, 5.57251%, 22.402954%)" offset="0.359375"/><stop stop-opacity="1" stop-color="rgb(5.917358%, 5.696106%, 22.897339%)" offset="0.363281"/><stop stop-opacity="1" stop-color="rgb(6.045532%, 5.819702%, 23.391724%)" offset="0.367188"/><stop stop-opacity="1" stop-color="rgb(6.173706%, 5.941772%, 23.886108%)" offset="0.371094"/><stop stop-opacity="1" stop-color="rgb(6.30188%, 6.065369%, 24.380493%)" offset="0.375"/><stop stop-opacity="1" stop-color="rgb(6.428528%, 6.187439%, 24.874878%)" offset="0.378906"/><stop stop-opacity="1" stop-color="rgb(6.556702%, 6.311035%, 25.369263%)" offset="0.382813"/><stop stop-opacity="1" stop-color="rgb(6.684875%, 6.433105%, 25.862122%)" offset="0.386719"/><stop stop-opacity="1" stop-color="rgb(6.813049%, 6.556702%, 26.356506%)" offset="0.390625"/><stop stop-opacity="1" stop-color="rgb(6.939697%, 6.678772%, 26.850891%)" offset="0.394531"/><stop stop-opacity="1" stop-color="rgb(7.067871%, 6.802368%, 27.345276%)" offset="0.398437"/><stop stop-opacity="1" stop-color="rgb(7.194519%, 6.924438%, 27.839661%)" offset="0.402344"/><stop stop-opacity="1" stop-color="rgb(7.322693%, 7.048035%, 28.334045%)" offset="0.40625"/><stop stop-opacity="1" stop-color="rgb(7.450867%, 7.170105%, 28.82843%)" offset="0.410156"/><stop stop-opacity="1" stop-color="rgb(7.579041%, 7.293701%, 29.322815%)" offset="0.414062"/><stop stop-opacity="1" stop-color="rgb(7.705688%, 7.417297%, 29.815674%)" offset="0.417969"/><stop stop-opacity="1" stop-color="rgb(7.833862%, 7.540894%, 30.310059%)" offset="0.421875"/><stop stop-opacity="1" stop-color="rgb(7.962036%, 7.662964%, 30.804443%)" offset="0.425781"/><stop stop-opacity="1" stop-color="rgb(8.09021%, 7.78656%, 31.298828%)" offset="0.429688"/><stop stop-opacity="1" stop-color="rgb(8.216858%, 7.90863%, 31.793213%)" offset="0.433594"/><stop stop-opacity="1" stop-color="rgb(8.345032%, 8.032227%, 32.287598%)" offset="0.4375"/><stop stop-opacity="1" stop-color="rgb(8.473206%, 8.154297%, 32.781982%)" offset="0.441406"/><stop stop-opacity="1" stop-color="rgb(8.601379%, 8.277893%, 33.276367%)" offset="0.445313"/><stop stop-opacity="1" stop-color="rgb(8.728027%, 8.399963%, 33.769226%)" offset="0.449219"/><stop stop-opacity="1" stop-color="rgb(8.856201%, 8.52356%, 34.263611%)" offset="0.453125"/><stop stop-opacity="1" stop-color="rgb(8.984375%, 8.64563%, 34.757996%)" offset="0.457031"/><stop stop-opacity="1" stop-color="rgb(9.112549%, 8.769226%, 35.25238%)" offset="0.460938"/><stop stop-opacity="1" stop-color="rgb(9.239197%, 8.892822%, 35.746765%)" offset="0.464844"/><stop stop-opacity="1" stop-color="rgb(9.367371%, 9.016418%, 36.24115%)" offset="0.46875"/><stop stop-opacity="1" stop-color="rgb(9.494019%, 9.138489%, 36.734009%)" offset="0.472656"/><stop stop-opacity="1" stop-color="rgb(9.622192%, 9.262085%, 37.228394%)" offset="0.476562"/><stop stop-opacity="1" stop-color="rgb(9.750366%, 9.384155%, 37.722778%)" offset="0.480469"/><stop stop-opacity="1" stop-color="rgb(9.87854%, 9.507751%, 38.217163%)" offset="0.484375"/><stop stop-opacity="1" stop-color="rgb(10.005188%, 9.629822%, 38.711548%)" offset="0.488281"/><stop stop-opacity="1" stop-color="rgb(10.133362%, 9.753418%, 39.205933%)" offset="0.492188"/><stop stop-opacity="1" stop-color="rgb(10.261536%, 9.875488%, 39.700317%)" offset="0.496094"/><stop stop-opacity="1" stop-color="rgb(10.389709%, 9.999084%, 40.194702%)" offset="0.5"/><stop stop-opacity="1" stop-color="rgb(10.516357%, 10.121155%, 40.687561%)" offset="0.503906"/><stop stop-opacity="1" stop-color="rgb(10.644531%, 10.244751%, 41.181946%)" offset="0.507812"/><stop stop-opacity="1" stop-color="rgb(10.772705%, 10.366821%, 41.676331%)" offset="0.511719"/><stop stop-opacity="1" stop-color="rgb(10.900879%, 10.490417%, 42.170715%)" offset="0.515625"/><stop stop-opacity="1" stop-color="rgb(11.027527%, 10.614014%, 42.6651%)" offset="0.519531"/><stop stop-opacity="1" stop-color="rgb(11.155701%, 10.73761%, 43.159485%)" offset="0.523438"/><stop stop-opacity="1" stop-color="rgb(11.282349%, 10.85968%, 43.65387%)" offset="0.527344"/><stop stop-opacity="1" stop-color="rgb(11.410522%, 10.983276%, 44.148254%)" offset="0.53125"/><stop stop-opacity="1" stop-color="rgb(11.538696%, 11.105347%, 44.641113%)" offset="0.535156"/><stop stop-opacity="1" stop-color="rgb(11.66687%, 11.228943%, 45.135498%)" offset="0.539062"/><stop stop-opacity="1" stop-color="rgb(11.793518%, 11.351013%, 45.629883%)" offset="0.542969"/><stop stop-opacity="1" stop-color="rgb(11.921692%, 11.474609%, 46.124268%)" offset="0.546875"/><stop stop-opacity="1" stop-color="rgb(12.049866%, 11.59668%, 46.618652%)" offset="0.550781"/><stop stop-opacity="1" stop-color="rgb(12.17804%, 11.720276%, 47.113037%)" offset="0.554687"/><stop stop-opacity="1" stop-color="rgb(12.304688%, 11.842346%, 47.607422%)" offset="0.558594"/><stop stop-opacity="1" stop-color="rgb(12.432861%, 11.965942%, 48.101807%)" offset="0.5625"/><stop stop-opacity="1" stop-color="rgb(12.561035%, 12.088013%, 48.594666%)" offset="0.566406"/><stop stop-opacity="1" stop-color="rgb(12.689209%, 12.211609%, 49.08905%)" offset="0.570312"/><stop stop-opacity="1" stop-color="rgb(12.815857%, 12.335205%, 49.583435%)" offset="0.574219"/><stop stop-opacity="1" stop-color="rgb(12.944031%, 12.458801%, 50.07782%)" offset="0.578125"/><stop stop-opacity="1" stop-color="rgb(13.070679%, 12.580872%, 50.572205%)" offset="0.582031"/><stop stop-opacity="1" stop-color="rgb(13.198853%, 12.704468%, 51.066589%)" offset="0.585938"/><stop stop-opacity="1" stop-color="rgb(13.327026%, 12.826538%, 51.560974%)" offset="0.589844"/><stop stop-opacity="1" stop-color="rgb(13.4552%, 12.950134%, 52.055359%)" offset="0.59375"/><stop stop-opacity="1" stop-color="rgb(13.581848%, 13.072205%, 52.548218%)" offset="0.597656"/><stop stop-opacity="1" stop-color="rgb(13.710022%, 13.195801%, 53.042603%)" offset="0.601562"/><stop stop-opacity="1" stop-color="rgb(13.838196%, 13.317871%, 53.536987%)" offset="0.605469"/><stop stop-opacity="1" stop-color="rgb(13.96637%, 13.441467%, 54.031372%)" offset="0.609375"/><stop stop-opacity="1" stop-color="rgb(14.093018%, 13.563538%, 54.525757%)" offset="0.613281"/><stop stop-opacity="1" stop-color="rgb(14.221191%, 13.687134%, 55.020142%)" offset="0.617187"/><stop stop-opacity="1" stop-color="rgb(14.349365%, 13.809204%, 55.513%)" offset="0.621094"/><stop stop-opacity="1" stop-color="rgb(14.477539%, 13.9328%, 56.007385%)" offset="0.625"/><stop stop-opacity="1" stop-color="rgb(14.604187%, 14.056396%, 56.50177%)" offset="0.628906"/><stop stop-opacity="1" stop-color="rgb(14.732361%, 14.179993%, 56.996155%)" offset="0.632812"/><stop stop-opacity="1" stop-color="rgb(14.859009%, 14.302063%, 57.49054%)" offset="0.636719"/><stop stop-opacity="1" stop-color="rgb(14.987183%, 14.425659%, 57.984924%)" offset="0.640625"/><stop stop-opacity="1" stop-color="rgb(15.115356%, 14.547729%, 58.479309%)" offset="0.644531"/><stop stop-opacity="1" stop-color="rgb(15.24353%, 14.671326%, 58.973694%)" offset="0.648438"/><stop stop-opacity="1" stop-color="rgb(15.370178%, 14.793396%, 59.466553%)" offset="0.652344"/><stop stop-opacity="1" stop-color="rgb(15.498352%, 14.916992%, 59.960938%)" offset="0.65625"/><stop stop-opacity="1" stop-color="rgb(15.626526%, 15.039062%, 60.455322%)" offset="0.660156"/><stop stop-opacity="1" stop-color="rgb(15.7547%, 15.162659%, 60.949707%)" offset="0.664062"/><stop stop-opacity="1" stop-color="rgb(15.881348%, 15.284729%, 61.444092%)" offset="0.667969"/><stop stop-opacity="1" stop-color="rgb(16.009521%, 15.408325%, 61.938477%)" offset="0.671875"/><stop stop-opacity="1" stop-color="rgb(16.137695%, 15.531921%, 62.432861%)" offset="0.675781"/><stop stop-opacity="1" stop-color="rgb(16.265869%, 15.655518%, 62.927246%)" offset="0.679687"/><stop stop-opacity="1" stop-color="rgb(16.392517%, 15.777588%, 63.420105%)" offset="0.683594"/><stop stop-opacity="1" stop-color="rgb(16.520691%, 15.901184%, 63.91449%)" offset="0.6875"/><stop stop-opacity="1" stop-color="rgb(16.648865%, 16.023254%, 64.408875%)" offset="0.691406"/><stop stop-opacity="1" stop-color="rgb(16.777039%, 16.146851%, 64.903259%)" offset="0.695312"/><stop stop-opacity="1" stop-color="rgb(16.903687%, 16.268921%, 65.397644%)" offset="0.699219"/><stop stop-opacity="1" stop-color="rgb(17.03186%, 16.392517%, 65.892029%)" offset="0.703125"/><stop stop-opacity="1" stop-color="rgb(17.158508%, 16.514587%, 66.386414%)" offset="0.707031"/><stop stop-opacity="1" stop-color="rgb(17.286682%, 16.638184%, 66.880798%)" offset="0.710938"/><stop stop-opacity="1" stop-color="rgb(17.414856%, 16.760254%, 67.373657%)" offset="0.714844"/><stop stop-opacity="1" stop-color="rgb(17.54303%, 16.88385%, 67.868042%)" offset="0.71875"/><stop stop-opacity="1" stop-color="rgb(17.669678%, 17.00592%, 68.362427%)" offset="0.722656"/><stop stop-opacity="1" stop-color="rgb(17.797852%, 17.129517%, 68.856812%)" offset="0.726562"/><stop stop-opacity="1" stop-color="rgb(17.926025%, 17.253113%, 69.351196%)" offset="0.730469"/><stop stop-opacity="1" stop-color="rgb(18.054199%, 17.376709%, 69.845581%)" offset="0.734375"/><stop stop-opacity="1" stop-color="rgb(18.180847%, 17.498779%, 70.33844%)" offset="0.738281"/><stop stop-opacity="1" stop-color="rgb(18.309021%, 17.622375%, 70.832825%)" offset="0.742188"/><stop stop-opacity="1" stop-color="rgb(18.437195%, 17.744446%, 71.327209%)" offset="0.746094"/><stop stop-opacity="1" stop-color="rgb(18.565369%, 17.868042%, 71.821594%)" offset="0.75"/><stop stop-opacity="1" stop-color="rgb(18.692017%, 17.990112%, 72.315979%)" offset="0.753906"/><stop stop-opacity="1" stop-color="rgb(18.82019%, 18.113708%, 72.810364%)" offset="0.757812"/><stop stop-opacity="1" stop-color="rgb(18.946838%, 18.235779%, 73.304749%)" offset="0.761719"/><stop stop-opacity="1" stop-color="rgb(19.075012%, 18.359375%, 73.799133%)" offset="0.765625"/><stop stop-opacity="1" stop-color="rgb(19.203186%, 18.481445%, 74.291992%)" offset="0.769531"/><stop stop-opacity="1" stop-color="rgb(19.33136%, 18.605042%, 74.786377%)" offset="0.773438"/><stop stop-opacity="1" stop-color="rgb(19.458008%, 18.727112%, 75.280762%)" offset="0.777344"/><stop stop-opacity="1" stop-color="rgb(19.586182%, 18.850708%, 75.775146%)" offset="0.78125"/><stop stop-opacity="1" stop-color="rgb(19.714355%, 18.974304%, 76.269531%)" offset="0.785156"/><stop stop-opacity="1" stop-color="rgb(19.842529%, 19.0979%, 76.763916%)" offset="0.789062"/><stop stop-opacity="1" stop-color="rgb(19.969177%, 19.219971%, 77.258301%)" offset="0.792969"/><stop stop-opacity="1" stop-color="rgb(20.097351%, 19.343567%, 77.752686%)" offset="0.796875"/><stop stop-opacity="1" stop-color="rgb(20.225525%, 19.465637%, 78.245544%)" offset="0.800781"/><stop stop-opacity="1" stop-color="rgb(20.353699%, 19.589233%, 78.739929%)" offset="0.804688"/><stop stop-opacity="1" stop-color="rgb(20.480347%, 19.711304%, 79.234314%)" offset="0.808594"/><stop stop-opacity="1" stop-color="rgb(20.608521%, 19.8349%, 79.728699%)" offset="0.8125"/><stop stop-opacity="1" stop-color="rgb(20.69397%, 19.917297%, 80.058289%)" offset="0.816406"/><stop stop-opacity="1" stop-color="rgb(20.779419%, 19.999695%, 80.389404%)" offset="0.820312"/><stop stop-opacity="1" stop-color="rgb(20.779419%, 19.999695%, 80.389404%)" offset="0.828125"/><stop stop-opacity="1" stop-color="rgb(20.779419%, 19.999695%, 80.389404%)" offset="0.84375"/><stop stop-opacity="1" stop-color="rgb(20.779419%, 19.999695%, 80.389404%)" offset="0.875"/><stop stop-opacity="1" stop-color="rgb(20.779419%, 19.999695%, 80.389404%)" offset="1"/></linearGradient><clipPath id="b7fc276194"><rect x="0" width="984" y="0" height="472"/></clipPath><clipPath id="7b3bdd6ed9"><path d="M 0.652344 0.476562 L 983.148438 0.476562 L 983.148438 471.476562 L 0.652344 471.476562 Z M 0.652344 0.476562 " clip-rule="nonzero"/></clipPath><clipPath id="aaa3151940"><rect x="0" width="984" y="0" height="472"/></clipPath><clipPath id="a506a0220a"><rect x="0" width="984" y="0" height="472"/></clipPath><mask id="3a2d93d432"><g filter="url(#ecf23666ca)"><g transform="matrix(1, 0, 0, 1, 0, 0.000000000000113687)"><g clip-path="url(#a506a0220a)"><g clip-path="url(#7b3bdd6ed9)"><g transform="matrix(1, 0, 0, 1, 0, 0.000000000000113687)"><g clip-path="url(#aaa3151940)"><g fill="#000000" fill-opacity="1"><g transform="translate(175.400386, 256.978101)"><g><path d="M 63.328125 -71.875 C 63.734375 -71.875 64.253906 -71.695312 64.890625 -71.34375 C 65.523438 -71 65.84375 -70.15625 65.84375 -68.8125 L 65.84375 -2.96875 C 65.84375 -1.625 65.523438 -0.773438 64.890625 -0.421875 C 64.253906 -0.078125 63.734375 0.09375 63.328125 0.09375 L 55.296875 0.09375 C 54.941406 0.09375 54.457031 -0.078125 53.84375 -0.421875 C 53.238281 -0.773438 52.9375 -1.625 52.9375 -2.96875 L 52.9375 -29.828125 L 19.890625 -29.828125 L 19.890625 -2.96875 C 19.890625 -1.625 19.582031 -0.773438 18.96875 -0.421875 C 18.351562 -0.078125 17.84375 0.09375 17.4375 0.09375 L 9.5 0.09375 C 9.09375 0.09375 8.570312 -0.078125 7.9375 -0.421875 C 7.300781 -0.773438 6.984375 -1.625 6.984375 -2.96875 L 6.984375 -68.8125 C 6.984375 -70.15625 7.300781 -71 7.9375 -71.34375 C 8.570312 -71.695312 9.09375 -71.875 9.5 -71.875 L 17.4375 -71.875 C 17.84375 -71.875 18.351562 -71.695312 18.96875 -71.34375 C 19.582031 -71 19.890625 -70.15625 19.890625 -68.8125 L 19.890625 -42.734375 L 52.9375 -42.734375 L 52.9375 -68.8125 C 52.9375 -70.15625 53.238281 -71 53.84375 -71.34375 C 54.457031 -71.695312 54.941406 -71.875 55.296875 -71.875 Z M 63.328125 -71.875 "/></g></g></g><g fill="#000000" fill-opacity="1"><g transform="translate(252.58207, 256.978101)"><g><path d="M 66.375 -65.5 C 68.0625 -63.40625 69.3125 -60.554688 70.125 -56.953125 C 70.46875 -55.265625 70.738281 -53.375 70.9375 -51.28125 C 71.144531 -49.1875 71.25 -46.945312 71.25 -44.5625 L 71.25 -27.296875 C 71.25 -24.859375 71.144531 -22.59375 70.9375 -20.5 C 70.738281 -18.40625 70.46875 -16.515625 70.125 -14.828125 C 69.3125 -11.273438 68.0625 -8.394531 66.375 -6.1875 C 64.570312 -3.925781 62.304688 -2.328125 59.578125 -1.390625 C 56.785156 -0.398438 53.5 0.09375 49.71875 0.09375 L 28.4375 0.09375 C 24.59375 0.09375 21.335938 -0.398438 18.671875 -1.390625 C 15.929688 -2.328125 13.660156 -3.957031 11.859375 -6.28125 C 10.117188 -8.550781 8.867188 -11.398438 8.109375 -14.828125 C 7.703125 -16.515625 7.410156 -18.40625 7.234375 -20.5 C 7.066406 -22.59375 6.984375 -24.859375 6.984375 -27.296875 L 6.984375 -44.5625 C 6.984375 -49.5625 7.359375 -53.691406 8.109375 -56.953125 C 8.867188 -60.378906 10.117188 -63.226562 11.859375 -65.5 C 13.660156 -67.707031 15.929688 -69.335938 18.671875 -70.390625 C 21.453125 -71.378906 24.707031 -71.875 28.4375 -71.875 L 49.71875 -71.875 C 53.5 -71.875 56.785156 -71.378906 59.578125 -70.390625 C 62.304688 -69.335938 64.570312 -67.707031 66.375 -65.5 Z M 58.265625 -46.046875 C 58.265625 -47.328125 58.234375 -48.503906 58.171875 -49.578125 C 58.117188 -50.660156 58.003906 -51.632812 57.828125 -52.5 C 57.597656 -54.132812 57.101562 -55.445312 56.34375 -56.4375 C 55.757812 -57.25 54.890625 -57.882812 53.734375 -58.34375 C 53.148438 -58.519531 52.492188 -58.664062 51.765625 -58.78125 C 51.035156 -58.894531 50.207031 -58.953125 49.28125 -58.953125 L 28.875 -58.953125 C 27.9375 -58.953125 27.101562 -58.894531 26.375 -58.78125 C 25.65625 -58.664062 25.003906 -58.519531 24.421875 -58.34375 C 23.253906 -57.882812 22.382812 -57.25 21.8125 -56.4375 C 21.457031 -55.96875 21.160156 -55.398438 20.921875 -54.734375 C 20.691406 -54.066406 20.492188 -53.320312 20.328125 -52.5 C 20.203125 -51.632812 20.097656 -50.660156 20.015625 -49.578125 C 19.929688 -48.503906 19.890625 -47.328125 19.890625 -46.046875 L 19.890625 -25.734375 C 19.890625 -24.453125 19.929688 -23.269531 20.015625 -22.1875 C 20.097656 -21.113281 20.203125 -20.144531 20.328125 -19.28125 C 20.492188 -18.519531 20.691406 -17.804688 20.921875 -17.140625 C 21.160156 -16.472656 21.457031 -15.90625 21.8125 -15.4375 C 22.382812 -14.507812 23.253906 -13.867188 24.421875 -13.515625 C 25.460938 -13.109375 26.945312 -12.90625 28.875 -12.90625 L 49.28125 -12.90625 C 51.195312 -12.90625 52.679688 -13.109375 53.734375 -13.515625 C 54.890625 -13.867188 55.757812 -14.507812 56.34375 -15.4375 C 57.039062 -16.3125 57.535156 -17.59375 57.828125 -19.28125 C 58.003906 -20.144531 58.117188 -21.113281 58.171875 -22.1875 C 58.234375 -23.269531 58.265625 -24.453125 58.265625 -25.734375 Z M 58.265625 -46.046875 "/></g></g></g><g fill="#000000" fill-opacity="1"><g transform="translate(335.170834, 256.978101)"><g><path d="M 59.484375 -71.875 C 59.828125 -71.875 60.316406 -71.710938 60.953125 -71.390625 C 61.597656 -71.066406 61.921875 -70.207031 61.921875 -68.8125 L 61.921875 -61.921875 C 61.921875 -60.585938 61.597656 -59.757812 60.953125 -59.4375 C 60.316406 -59.113281 59.828125 -58.953125 59.484375 -58.953125 L 9.328125 -58.953125 C 8.984375 -58.953125 8.503906 -59.125 7.890625 -59.46875 C 7.285156 -59.820312 6.984375 -60.671875 6.984375 -62.015625 L 6.984375 -68.734375 C 6.984375 -70.128906 7.285156 -71 7.890625 -71.34375 C 8.503906 -71.695312 8.984375 -71.875 9.328125 -71.875 Z M 59.046875 -42.65625 C 59.398438 -42.65625 59.894531 -42.476562 60.53125 -42.125 C 61.164062 -41.78125 61.484375 -40.9375 61.484375 -39.59375 L 61.484375 -32.703125 C 61.484375 -31.367188 61.164062 -30.539062 60.53125 -30.21875 C 59.894531 -29.894531 59.398438 -29.734375 59.046875 -29.734375 L 20.0625 -29.734375 C 20.0625 -29.734375 20.046875 -29.09375 20.015625 -27.8125 C 19.984375 -26.539062 19.96875 -24.882812 19.96875 -22.84375 C 19.96875 -20.8125 19.953125 -18.644531 19.921875 -16.34375 C 19.898438 -14.050781 19.890625 -11.882812 19.890625 -9.84375 C 19.890625 -7.8125 19.890625 -6.15625 19.890625 -4.875 C 19.890625 -3.601562 19.890625 -2.96875 19.890625 -2.96875 C 19.890625 -1.625 19.566406 -0.773438 18.921875 -0.421875 C 18.285156 -0.078125 17.789062 0.09375 17.4375 0.09375 L 9.421875 0.09375 C 9.066406 0.09375 8.570312 -0.078125 7.9375 -0.421875 C 7.300781 -0.773438 6.984375 -1.625 6.984375 -2.96875 L 7.15625 -36.625 C 7.269531 -37.039062 7.398438 -37.4375 7.546875 -37.8125 C 7.691406 -38.1875 7.851562 -38.550781 8.03125 -38.90625 C 9.425781 -41.164062 11.429688 -42.382812 14.046875 -42.5625 Z M 59.046875 -42.65625 "/></g></g></g><g fill="#000000" fill-opacity="1"><g transform="translate(408.42803, 256.978101)"><g><path d="M 59.484375 -71.875 C 59.828125 -71.875 60.316406 -71.710938 60.953125 -71.390625 C 61.597656 -71.066406 61.921875 -70.207031 61.921875 -68.8125 L 61.921875 -61.921875 C 61.921875 -60.585938 61.597656 -59.757812 60.953125 -59.4375 C 60.316406 -59.113281 59.828125 -58.953125 59.484375 -58.953125 L 9.328125 -58.953125 C 8.984375 -58.953125 8.503906 -59.125 7.890625 -59.46875 C 7.285156 -59.820312 6.984375 -60.671875 6.984375 -62.015625 L 6.984375 -68.734375 C 6.984375 -70.128906 7.285156 -71 7.890625 -71.34375 C 8.503906 -71.695312 8.984375 -71.875 9.328125 -71.875 Z M 59.046875 -42.65625 C 59.398438 -42.65625 59.894531 -42.476562 60.53125 -42.125 C 61.164062 -41.78125 61.484375 -40.9375 61.484375 -39.59375 L 61.484375 -32.703125 C 61.484375 -31.367188 61.164062 -30.539062 60.53125 -30.21875 C 59.894531 -29.894531 59.398438 -29.734375 59.046875 -29.734375 L 20.0625 -29.734375 C 20.0625 -29.734375 20.046875 -29.09375 20.015625 -27.8125 C 19.984375 -26.539062 19.96875 -24.882812 19.96875 -22.84375 C 19.96875 -20.8125 19.953125 -18.644531 19.921875 -16.34375 C 19.898438 -14.050781 19.890625 -11.882812 19.890625 -9.84375 C 19.890625 -7.8125 19.890625 -6.15625 19.890625 -4.875 C 19.890625 -3.601562 19.890625 -2.96875 19.890625 -2.96875 C 19.890625 -1.625 19.566406 -0.773438 18.921875 -0.421875 C 18.285156 -0.078125 17.789062 0.09375 17.4375 0.09375 L 9.421875 0.09375 C 9.066406 0.09375 8.570312 -0.078125 7.9375 -0.421875 C 7.300781 -0.773438 6.984375 -1.625 6.984375 -2.96875 L 7.15625 -36.625 C 7.269531 -37.039062 7.398438 -37.4375 7.546875 -37.8125 C 7.691406 -38.1875 7.851562 -38.550781 8.03125 -38.90625 C 9.425781 -41.164062 11.429688 -42.382812 14.046875 -42.5625 Z M 59.046875 -42.65625 "/></g></g></g><g fill="#000000" fill-opacity="1"><g transform="translate(481.685227, 256.978101)"><g><path d="M 49.109375 -42.90625 C 53.640625 -42.90625 57.097656 -41.304688 59.484375 -38.109375 C 61.753906 -34.972656 62.890625 -30.554688 62.890625 -24.859375 L 62.890625 -17.1875 C 62.890625 -12.1875 61.785156 -8.085938 59.578125 -4.890625 C 57.304688 -1.628906 53.757812 0 48.9375 0 L 9.59375 0 C 9.1875 0 8.660156 -0.15625 8.015625 -0.46875 C 7.378906 -0.789062 7.0625 -1.625 7.0625 -2.96875 L 7.0625 -9.9375 C 7.0625 -11.28125 7.378906 -12.109375 8.015625 -12.421875 C 8.660156 -12.742188 9.1875 -12.90625 9.59375 -12.90625 L 46.84375 -12.90625 C 47.59375 -12.90625 48.128906 -13.035156 48.453125 -13.296875 C 48.773438 -13.554688 49.019531 -13.804688 49.1875 -14.046875 C 49.707031 -14.910156 49.96875 -16.128906 49.96875 -17.703125 L 49.96875 -25.203125 C 49.96875 -27.359375 49.617188 -28.695312 48.921875 -29.21875 C 48.234375 -29.738281 47.566406 -30 46.921875 -30 L 20.765625 -30 C 18.953125 -30 17.101562 -30.234375 15.21875 -30.703125 C 13.332031 -31.171875 11.71875 -32.304688 10.375 -34.109375 C 8.113281 -37.304688 6.984375 -41.957031 6.984375 -48.0625 L 6.984375 -54.6875 C 6.984375 -59.800781 8.113281 -63.929688 10.375 -67.078125 C 12.644531 -70.273438 16.164062 -71.875 20.9375 -71.875 L 58.53125 -71.875 C 58.875 -71.875 59.363281 -71.710938 60 -71.390625 C 60.644531 -71.066406 60.96875 -70.238281 60.96875 -68.90625 L 60.96875 -61.921875 C 60.96875 -60.585938 60.644531 -59.757812 60 -59.4375 C 59.363281 -59.113281 58.875 -58.953125 58.53125 -58.953125 L 23.03125 -58.953125 C 22.269531 -58.953125 21.726562 -58.835938 21.40625 -58.609375 C 21.09375 -58.378906 20.847656 -58.117188 20.671875 -57.828125 C 20.203125 -56.898438 19.96875 -55.675781 19.96875 -54.15625 L 19.96875 -47.703125 C 19.96875 -45.554688 20.300781 -44.21875 20.96875 -43.6875 C 21.644531 -43.164062 22.300781 -42.90625 22.9375 -42.90625 Z M 49.109375 -42.90625 "/></g></g></g><g fill="#000000" fill-opacity="1"><g transform="translate(555.901757, 256.978101)"><g><path d="M 67.25 -71.875 C 67.65625 -71.875 68.175781 -71.710938 68.8125 -71.390625 C 69.457031 -71.066406 69.78125 -70.238281 69.78125 -68.90625 L 69.78125 -62.09375 C 69.78125 -60.644531 69.457031 -59.757812 68.8125 -59.4375 C 68.175781 -59.113281 67.65625 -58.953125 67.25 -58.953125 L 44.828125 -58.953125 L 44.828125 -2.96875 C 44.828125 -1.625 44.519531 -0.789062 43.90625 -0.46875 C 43.300781 -0.15625 42.796875 0 42.390625 0 L 34.359375 0 C 34.015625 0 33.519531 -0.15625 32.875 -0.46875 C 32.238281 -0.789062 31.921875 -1.625 31.921875 -2.96875 L 31.921875 -58.953125 L 9.5 -58.953125 C 9.09375 -58.953125 8.570312 -59.113281 7.9375 -59.4375 C 7.300781 -59.757812 6.984375 -60.644531 6.984375 -62.09375 L 6.984375 -68.90625 C 6.984375 -70.238281 7.300781 -71.066406 7.9375 -71.390625 C 8.570312 -71.710938 9.09375 -71.875 9.5 -71.875 Z M 67.25 -71.875 "/></g></g></g><g fill="#000000" fill-opacity="1"><g transform="translate(637.007952, 256.978101)"><g><path d="M 59.390625 -15.609375 C 59.796875 -15.609375 60.316406 -15.445312 60.953125 -15.125 C 61.597656 -14.8125 61.921875 -13.984375 61.921875 -12.640625 L 61.921875 -3.046875 C 61.921875 -1.710938 61.597656 -0.882812 60.953125 -0.5625 C 60.316406 -0.25 59.796875 -0.09375 59.390625 -0.09375 L 28.4375 -0.09375 C 26.519531 -0.09375 24.742188 -0.207031 23.109375 -0.4375 C 21.484375 -0.664062 20.003906 -1.039062 18.671875 -1.5625 C 15.816406 -2.550781 13.546875 -4.148438 11.859375 -6.359375 C 10.117188 -8.628906 8.867188 -11.484375 8.109375 -14.921875 C 7.816406 -16.367188 7.566406 -17.960938 7.359375 -19.703125 C 7.160156 -21.453125 7.035156 -23.34375 6.984375 -25.375 L 6.984375 -25.8125 L 7.15625 -36.8125 C 7.320312 -37.445312 7.640625 -38.171875 8.109375 -38.984375 C 9.390625 -41.253906 11.367188 -42.476562 14.046875 -42.65625 L 59.046875 -42.734375 C 59.398438 -42.734375 59.894531 -42.570312 60.53125 -42.25 C 61.164062 -41.9375 61.484375 -41.109375 61.484375 -39.765625 L 61.484375 -32.875 C 61.484375 -31.539062 61.164062 -30.695312 60.53125 -30.34375 C 59.894531 -30 59.398438 -29.828125 59.046875 -29.828125 L 20.0625 -29.828125 C 20.0625 -29.828125 20.046875 -29.503906 20.015625 -28.859375 C 19.984375 -28.222656 19.953125 -27.5 19.921875 -26.6875 C 19.898438 -25.875 19.890625 -25.144531 19.890625 -24.5 C 19.890625 -23.863281 19.890625 -23.546875 19.890625 -23.546875 C 19.941406 -23.316406 19.96875 -23.070312 19.96875 -22.8125 C 19.96875 -22.550781 20 -22.300781 20.0625 -22.0625 C 20.289062 -20.4375 20.785156 -19.128906 21.546875 -18.140625 C 22.242188 -17.265625 23.113281 -16.625 24.15625 -16.21875 C 24.800781 -16.050781 25.484375 -15.90625 26.203125 -15.78125 C 26.929688 -15.664062 27.757812 -15.609375 28.6875 -15.609375 Z M 14.65625 -41.953125 Z M 59.484375 -72.046875 C 59.828125 -72.046875 60.316406 -71.867188 60.953125 -71.515625 C 61.597656 -71.171875 61.921875 -70.328125 61.921875 -68.984375 L 61.921875 -62.09375 C 61.921875 -60.757812 61.597656 -59.914062 60.953125 -59.5625 C 60.316406 -59.21875 59.828125 -59.046875 59.484375 -59.046875 L 9.328125 -59.140625 C 8.984375 -59.140625 8.503906 -59.296875 7.890625 -59.609375 C 7.285156 -59.929688 6.984375 -60.757812 6.984375 -62.09375 L 6.984375 -68.90625 C 6.984375 -70.300781 7.285156 -71.171875 7.890625 -71.515625 C 8.503906 -71.867188 8.984375 -72.046875 9.328125 -72.046875 Z M 59.484375 -72.046875 "/></g></g></g><g fill="#000000" fill-opacity="1"><g transform="translate(710.265148, 256.978101)"><g><path d="M 59.390625 -15.609375 C 59.796875 -15.609375 60.316406 -15.445312 60.953125 -15.125 C 61.597656 -14.8125 61.921875 -13.984375 61.921875 -12.640625 L 61.921875 -3.046875 C 61.921875 -1.710938 61.597656 -0.882812 60.953125 -0.5625 C 60.316406 -0.25 59.796875 -0.09375 59.390625 -0.09375 L 28.4375 -0.09375 C 26.519531 -0.09375 24.742188 -0.207031 23.109375 -0.4375 C 21.484375 -0.664062 20.003906 -1.039062 18.671875 -1.5625 C 15.816406 -2.550781 13.546875 -4.148438 11.859375 -6.359375 C 10.117188 -8.628906 8.867188 -11.484375 8.109375 -14.921875 C 7.816406 -16.367188 7.566406 -17.960938 7.359375 -19.703125 C 7.160156 -21.453125 7.035156 -23.34375 6.984375 -25.375 L 6.984375 -25.8125 L 7.15625 -36.8125 C 7.320312 -37.445312 7.640625 -38.171875 8.109375 -38.984375 C 9.390625 -41.253906 11.367188 -42.476562 14.046875 -42.65625 L 59.046875 -42.734375 C 59.398438 -42.734375 59.894531 -42.570312 60.53125 -42.25 C 61.164062 -41.9375 61.484375 -41.109375 61.484375 -39.765625 L 61.484375 -32.875 C 61.484375 -31.539062 61.164062 -30.695312 60.53125 -30.34375 C 59.894531 -30 59.398438 -29.828125 59.046875 -29.828125 L 20.0625 -29.828125 C 20.0625 -29.828125 20.046875 -29.503906 20.015625 -28.859375 C 19.984375 -28.222656 19.953125 -27.5 19.921875 -26.6875 C 19.898438 -25.875 19.890625 -25.144531 19.890625 -24.5 C 19.890625 -23.863281 19.890625 -23.546875 19.890625 -23.546875 C 19.941406 -23.316406 19.96875 -23.070312 19.96875 -22.8125 C 19.96875 -22.550781 20 -22.300781 20.0625 -22.0625 C 20.289062 -20.4375 20.785156 -19.128906 21.546875 -18.140625 C 22.242188 -17.265625 23.113281 -16.625 24.15625 -16.21875 C 24.800781 -16.050781 25.484375 -15.90625 26.203125 -15.78125 C 26.929688 -15.664062 27.757812 -15.609375 28.6875 -15.609375 Z M 14.65625 -41.953125 Z M 59.484375 -72.046875 C 59.828125 -72.046875 60.316406 -71.867188 60.953125 -71.515625 C 61.597656 -71.171875 61.921875 -70.328125 61.921875 -68.984375 L 61.921875 -62.09375 C 61.921875 -60.757812 61.597656 -59.914062 60.953125 -59.5625 C 60.316406 -59.21875 59.828125 -59.046875 59.484375 -59.046875 L 9.328125 -59.140625 C 8.984375 -59.140625 8.503906 -59.296875 7.890625 -59.609375 C 7.285156 -59.929688 6.984375 -60.757812 6.984375 -62.09375 L 6.984375 -68.90625 C 6.984375 -70.300781 7.285156 -71.171875 7.890625 -71.515625 C 8.503906 -71.867188 8.984375 -72.046875 9.328125 -72.046875 Z M 59.484375 -72.046875 "/></g></g></g></g></g></g></g></g></g></mask><clipPath id="ea4e6e589f"><path d="M 0.652344 17.726562 L 957.648438 17.726562 L 957.648438 453.476562 L 0.652344 453.476562 Z M 0.652344 17.726562 " clip-rule="nonzero"/></clipPath><clipPath id="abef2ef493"><rect x="0" width="984" y="0" height="472"/></clipPath><clipPath id="2d6f8a1194"><rect x="0" width="984" y="0" height="472"/></clipPath></defs><g clip-path="url(#78cf30c914)"><g transform="matrix(1, 0, 0, 1, 258, 462)"><g clip-path="url(#2d6f8a1194)"><g clip-path="url(#4c8ddc330b)"><g mask="url(#3a2d93d432)"><g transform="matrix(1, 0, 0, 1, 0, 0.000000000000113687)"><g clip-path="url(#abef2ef493)"><g clip-path="url(#ea4e6e589f)"><path fill="url(#1542819dae)" d="M 0.652344 17.726562 L 0.652344 453.476562 L 957.648438 453.476562 L 957.648438 17.726562 Z M 0.652344 17.726562 " fill-rule="nonzero"/></g></g></g></g></g></g></g></g></svg>