<?xml version="1.0" encoding="utf-8"?>
<!-- Generator: Adobe Illustrator 24.0.0, SVG Export Plug-In . SVG Version: 6.00 Build 0)  -->
<svg version="1.1" id="Layer_1" xmlns="http://www.w3.org/2000/svg" xmlns:xlink="http://www.w3.org/1999/xlink" x="0px" y="0px"
	 width="181.08px" height="53px" viewBox="0 0 181.08 53" enable-background="new 0 0 181.08 53" xml:space="preserve">
<g>
	<g>
		<g>
			<path fill="#220E3D" d="M64.91,28.69v-3.06l8.82-10.89h-8.82v-2.84h13.28v2.63L69,25.87h9.55v2.83H64.91z"/>
			<path fill="#220E3D" d="M87.7,24.82l3.21,0.54c-0.41,1.18-1.06,2.07-1.95,2.68c-0.89,0.61-2,0.92-3.34,0.92
				c-2.11,0-3.68-0.69-4.69-2.07c-0.8-1.11-1.2-2.5-1.2-4.19c0-2.01,0.53-3.59,1.58-4.73c1.05-1.14,2.39-1.71,4-1.71
				c1.81,0,3.24,0.6,4.28,1.79c1.05,1.19,1.55,3.02,1.5,5.49h-8.06c0.02,0.95,0.28,1.7,0.78,2.23c0.5,0.53,1.11,0.8,1.85,0.8
				c0.5,0,0.93-0.14,1.27-0.41C87.27,25.88,87.53,25.43,87.7,24.82z M87.89,21.57c-0.02-0.93-0.26-1.64-0.72-2.12
				c-0.46-0.48-1.02-0.73-1.67-0.73c-0.7,0-1.28,0.26-1.74,0.77c-0.46,0.51-0.68,1.21-0.68,2.08H87.89z"/>
			<path fill="#220E3D" d="M92.57,25.22l3.23-0.49c0.14,0.63,0.42,1.1,0.84,1.43c0.42,0.32,1.01,0.49,1.76,0.49
				c0.83,0,1.46-0.15,1.88-0.46c0.28-0.21,0.42-0.5,0.42-0.86c0-0.24-0.08-0.45-0.23-0.61c-0.16-0.15-0.52-0.29-1.08-0.42
				c-2.6-0.57-4.24-1.1-4.93-1.57c-0.96-0.66-1.44-1.57-1.44-2.74c0-1.05,0.42-1.94,1.25-2.66c0.83-0.72,2.12-1.08,3.87-1.08
				c1.66,0,2.9,0.27,3.71,0.81c0.81,0.54,1.37,1.34,1.67,2.4l-3.03,0.56c-0.13-0.47-0.38-0.84-0.74-1.09
				c-0.36-0.25-0.88-0.38-1.55-0.38c-0.85,0-1.45,0.12-1.82,0.36C96.13,19.1,96,19.31,96,19.58c0,0.23,0.11,0.42,0.32,0.58
				c0.29,0.21,1.29,0.52,3.01,0.9c1.71,0.39,2.91,0.87,3.59,1.43c0.67,0.57,1.01,1.37,1.01,2.39c0,1.11-0.47,2.07-1.4,2.87
				c-0.93,0.8-2.31,1.2-4.13,1.2c-1.66,0-2.97-0.34-3.93-1.01C93.5,27.29,92.87,26.38,92.57,25.22z"/>
			<path fill="#220E3D" d="M112.32,16.53v2.56h-2.2V24c0,0.99,0.02,1.57,0.06,1.73c0.04,0.16,0.14,0.3,0.29,0.41
				c0.15,0.11,0.33,0.16,0.54,0.16c0.3,0,0.73-0.1,1.29-0.31l0.27,2.5c-0.75,0.32-1.6,0.48-2.54,0.48c-0.58,0-1.1-0.1-1.57-0.29
				c-0.47-0.19-0.81-0.45-1.02-0.76c-0.22-0.31-0.37-0.73-0.45-1.25c-0.07-0.37-0.1-1.13-0.1-2.27v-5.3h-1.48v-2.56h1.48v-2.42
				l3.23-1.88v4.29H112.32z"/>
			<path fill="#220E3D" d="M121.59,24.82l3.21,0.54c-0.41,1.18-1.06,2.07-1.95,2.68c-0.89,0.61-2,0.92-3.34,0.92
				c-2.11,0-3.68-0.69-4.69-2.07c-0.8-1.11-1.2-2.5-1.2-4.19c0-2.01,0.53-3.59,1.58-4.73c1.05-1.14,2.39-1.71,4-1.71
				c1.81,0,3.24,0.6,4.28,1.79c1.05,1.19,1.55,3.02,1.5,5.49h-8.06c0.02,0.95,0.28,1.7,0.78,2.23c0.5,0.53,1.11,0.8,1.85,0.8
				c0.5,0,0.93-0.14,1.27-0.41C121.16,25.88,121.42,25.43,121.59,24.82z M121.78,21.57c-0.02-0.93-0.26-1.64-0.72-2.12
				c-0.46-0.48-1.02-0.73-1.67-0.73c-0.7,0-1.28,0.26-1.74,0.77c-0.46,0.51-0.68,1.21-0.68,2.08H121.78z"/>
			<path fill="#220E3D" d="M138.19,20.13l-3.17,0.57c-0.11-0.63-0.35-1.11-0.73-1.43c-0.38-0.32-0.87-0.48-1.47-0.48
				c-0.8,0-1.44,0.28-1.92,0.83c-0.48,0.55-0.72,1.48-0.72,2.78c0,1.44,0.24,2.46,0.73,3.06c0.48,0.6,1.14,0.89,1.95,0.89
				c0.61,0,1.11-0.17,1.5-0.52c0.39-0.35,0.66-0.94,0.82-1.79l3.16,0.54c-0.33,1.45-0.96,2.55-1.89,3.29s-2.18,1.11-3.74,1.11
				c-1.78,0-3.2-0.56-4.25-1.68c-1.06-1.12-1.59-2.68-1.59-4.66c0-2.01,0.53-3.57,1.59-4.69c1.06-1.12,2.5-1.68,4.3-1.68
				c1.48,0,2.66,0.32,3.53,0.96C137.18,17.85,137.81,18.82,138.19,20.13z"/>
			<path fill="#220E3D" d="M143.84,11.91v6.17c1.04-1.21,2.28-1.82,3.72-1.82c0.74,0,1.41,0.14,2,0.41c0.6,0.27,1.04,0.63,1.35,1.05
				c0.3,0.43,0.51,0.9,0.62,1.42c0.11,0.52,0.17,1.32,0.17,2.42v7.13h-3.22v-6.42c0-1.27-0.06-2.08-0.18-2.43s-0.34-0.62-0.65-0.82
				c-0.31-0.2-0.7-0.3-1.16-0.3c-0.53,0-1.01,0.13-1.43,0.39c-0.42,0.26-0.73,0.65-0.92,1.17c-0.19,0.52-0.29,1.3-0.29,2.32v6.09
				h-3.22V11.91H143.84z"/>
			<path fill="#220E3D" d="M166.01,28.69h-3.22v-6.21c0-1.31-0.07-2.16-0.21-2.55c-0.14-0.39-0.36-0.69-0.67-0.9
				c-0.31-0.21-0.68-0.32-1.12-0.32c-0.56,0-1.06,0.15-1.5,0.46c-0.44,0.31-0.75,0.71-0.91,1.21c-0.16,0.5-0.25,1.44-0.25,2.79v5.51
				h-3.22V16.53h2.99v1.79c1.06-1.37,2.4-2.06,4.01-2.06c0.71,0,1.36,0.13,1.95,0.38c0.59,0.26,1.03,0.58,1.33,0.98
				c0.3,0.4,0.51,0.85,0.63,1.35c0.12,0.5,0.18,1.22,0.18,2.16V28.69z"/>
			<path fill="#220E3D" d="M168.53,22.44c0-1.07,0.26-2.1,0.79-3.1s1.27-1.76,2.24-2.29c0.97-0.53,2.04-0.79,3.23-0.79
				c1.84,0,3.35,0.6,4.52,1.79c1.18,1.19,1.76,2.7,1.76,4.53c0,1.84-0.59,3.36-1.78,4.57c-1.19,1.21-2.68,1.81-4.48,1.81
				c-1.11,0-2.18-0.25-3.19-0.76c-1.01-0.5-1.78-1.24-2.31-2.22C168.8,25.02,168.53,23.84,168.53,22.44z M171.83,22.61
				c0,1.21,0.29,2.13,0.86,2.77c0.57,0.64,1.28,0.96,2.12,0.96s1.54-0.32,2.11-0.96c0.57-0.64,0.85-1.57,0.85-2.79
				c0-1.19-0.28-2.11-0.85-2.75c-0.57-0.64-1.27-0.96-2.11-0.96s-1.55,0.32-2.12,0.96C172.12,20.48,171.83,21.41,171.83,22.61z"/>
		</g>
		<g>
			<path fill="#220E3D" d="M64.91,41.09v-6.38h2.41c0.42,0,0.75,0.02,0.97,0.06c0.31,0.05,0.58,0.15,0.79,0.3
				c0.21,0.15,0.38,0.35,0.51,0.62c0.13,0.26,0.19,0.55,0.19,0.87c0,0.54-0.17,1-0.52,1.38c-0.35,0.38-0.97,0.56-1.87,0.56h-1.64
				v2.59H64.91z M65.75,37.74h1.65c0.55,0,0.93-0.1,1.16-0.3c0.23-0.2,0.34-0.49,0.34-0.86c0-0.27-0.07-0.5-0.2-0.69
				c-0.13-0.19-0.31-0.32-0.53-0.38c-0.14-0.04-0.4-0.06-0.79-0.06h-1.63V37.74z"/>
			<path fill="#220E3D" d="M70.73,41.09v-6.38h0.78v6.38H70.73z"/>
			<path fill="#220E3D" d="M75.74,40.52c-0.29,0.25-0.57,0.42-0.84,0.52c-0.27,0.1-0.56,0.15-0.86,0.15c-0.51,0-0.9-0.12-1.17-0.37
				c-0.27-0.25-0.41-0.56-0.41-0.95c0-0.23,0.05-0.43,0.15-0.62c0.1-0.19,0.24-0.34,0.4-0.45s0.35-0.2,0.56-0.26
				c0.15-0.04,0.39-0.08,0.7-0.12c0.63-0.08,1.1-0.17,1.4-0.27c0-0.11,0-0.18,0-0.2c0-0.32-0.07-0.54-0.22-0.67
				c-0.2-0.18-0.5-0.27-0.89-0.27c-0.37,0-0.64,0.06-0.82,0.19c-0.18,0.13-0.31,0.36-0.39,0.69l-0.77-0.1
				c0.07-0.33,0.18-0.59,0.34-0.79c0.16-0.2,0.39-0.36,0.69-0.47c0.3-0.11,0.65-0.16,1.05-0.16c0.39,0,0.71,0.05,0.96,0.14
				c0.25,0.09,0.43,0.21,0.54,0.35c0.12,0.14,0.2,0.32,0.24,0.53c0.03,0.13,0.04,0.37,0.04,0.72v1.04c0,0.73,0.02,1.19,0.05,1.38
				c0.03,0.19,0.1,0.38,0.2,0.55H75.9C75.82,40.93,75.77,40.74,75.74,40.52z M75.68,38.77c-0.28,0.12-0.71,0.21-1.28,0.3
				c-0.32,0.05-0.55,0.1-0.68,0.16c-0.13,0.06-0.24,0.14-0.31,0.25c-0.07,0.11-0.11,0.24-0.11,0.37c0,0.21,0.08,0.38,0.24,0.52
				c0.16,0.14,0.39,0.21,0.69,0.21c0.3,0,0.57-0.07,0.8-0.2c0.24-0.13,0.41-0.31,0.52-0.54c0.08-0.18,0.13-0.44,0.13-0.78V38.77z"/>
			<path fill="#220E3D" d="M77.68,41.09v-4.62h0.7v0.66c0.34-0.51,0.83-0.76,1.47-0.76c0.28,0,0.53,0.05,0.77,0.15
				c0.23,0.1,0.41,0.23,0.52,0.39c0.12,0.16,0.2,0.36,0.24,0.58c0.03,0.14,0.04,0.4,0.04,0.76v2.84h-0.78v-2.81
				c0-0.32-0.03-0.56-0.09-0.72c-0.06-0.16-0.17-0.28-0.32-0.38c-0.16-0.09-0.34-0.14-0.55-0.14c-0.33,0-0.62,0.11-0.86,0.32
				c-0.24,0.21-0.36,0.61-0.36,1.2v2.52H77.68z"/>
			<path fill="#220E3D" d="M82.84,41.09V40.2h0.89v0.89c0,0.33-0.06,0.59-0.17,0.79c-0.12,0.2-0.3,0.36-0.55,0.47l-0.22-0.33
				c0.17-0.07,0.29-0.18,0.37-0.32c0.08-0.14,0.12-0.34,0.13-0.61H82.84z"/>
			<path fill="#220E3D" d="M87.59,41.09v-4.62h0.7v0.65c0.15-0.23,0.34-0.41,0.58-0.55c0.24-0.14,0.51-0.21,0.82-0.21
				c0.34,0,0.62,0.07,0.84,0.21c0.22,0.14,0.37,0.34,0.46,0.6c0.37-0.54,0.84-0.81,1.43-0.81c0.46,0,0.81,0.13,1.06,0.38
				c0.25,0.25,0.37,0.64,0.37,1.17v3.17h-0.78v-2.91c0-0.31-0.03-0.54-0.08-0.68c-0.05-0.14-0.14-0.25-0.28-0.33
				c-0.13-0.08-0.29-0.13-0.47-0.13c-0.32,0-0.59,0.11-0.81,0.32c-0.21,0.22-0.32,0.56-0.32,1.04v2.68h-0.78v-3
				c0-0.35-0.06-0.61-0.19-0.78c-0.13-0.17-0.34-0.26-0.63-0.26c-0.22,0-0.42,0.06-0.61,0.17c-0.19,0.12-0.32,0.29-0.41,0.51
				c-0.08,0.22-0.13,0.55-0.13,0.97v2.4H87.59z"/>
			<path fill="#220E3D" d="M98.17,39.6l0.81,0.1c-0.13,0.47-0.36,0.84-0.71,1.1c-0.35,0.26-0.79,0.39-1.32,0.39
				c-0.68,0-1.21-0.21-1.61-0.62c-0.4-0.42-0.59-1-0.59-1.75c0-0.78,0.2-1.38,0.6-1.81c0.4-0.43,0.92-0.64,1.56-0.64
				c0.62,0,1.12,0.21,1.51,0.63c0.39,0.42,0.59,1.01,0.59,1.77c0,0.05,0,0.12,0,0.21h-3.45c0.03,0.51,0.17,0.9,0.43,1.17
				c0.26,0.27,0.58,0.4,0.97,0.4c0.29,0,0.53-0.08,0.74-0.23C97.89,40.17,98.05,39.93,98.17,39.6z M95.6,38.34h2.58
				c-0.03-0.39-0.13-0.68-0.3-0.87c-0.25-0.3-0.57-0.45-0.97-0.45c-0.36,0-0.66,0.12-0.91,0.36C95.76,37.61,95.63,37.93,95.6,38.34z
				"/>
			<path fill="#220E3D" d="M103.13,39.6l0.81,0.1c-0.13,0.47-0.36,0.84-0.71,1.1c-0.35,0.26-0.79,0.39-1.32,0.39
				c-0.68,0-1.21-0.21-1.61-0.62c-0.4-0.42-0.59-1-0.59-1.75c0-0.78,0.2-1.38,0.6-1.81c0.4-0.43,0.92-0.64,1.56-0.64
				c0.62,0,1.12,0.21,1.51,0.63s0.59,1.01,0.59,1.77c0,0.05,0,0.12,0,0.21h-3.45c0.03,0.51,0.17,0.9,0.43,1.17
				c0.26,0.27,0.58,0.4,0.97,0.4c0.29,0,0.53-0.08,0.74-0.23C102.85,40.17,103.01,39.93,103.13,39.6z M100.56,38.34h2.58
				c-0.03-0.39-0.13-0.68-0.3-0.87c-0.25-0.3-0.57-0.45-0.97-0.45c-0.36,0-0.66,0.12-0.91,0.36
				C100.72,37.61,100.58,37.93,100.56,38.34z"/>
			<path fill="#220E3D" d="M106.63,40.39l0.11,0.69c-0.22,0.05-0.42,0.07-0.59,0.07c-0.28,0-0.5-0.05-0.66-0.13
				c-0.16-0.09-0.27-0.21-0.33-0.35c-0.06-0.15-0.1-0.45-0.1-0.92v-2.66h-0.57v-0.61h0.57v-1.14l0.78-0.47v1.61h0.79v0.61h-0.79v2.7
				c0,0.22,0.01,0.37,0.04,0.43c0.03,0.06,0.07,0.11,0.13,0.15c0.06,0.04,0.15,0.06,0.27,0.06
				C106.37,40.42,106.49,40.41,106.63,40.39z"/>
			<path fill="#220E3D" d="M112.88,40.52c-0.29,0.25-0.57,0.42-0.84,0.52c-0.27,0.1-0.56,0.15-0.86,0.15c-0.51,0-0.9-0.12-1.17-0.37
				c-0.27-0.25-0.41-0.56-0.41-0.95c0-0.23,0.05-0.43,0.15-0.62c0.1-0.19,0.24-0.34,0.4-0.45c0.17-0.11,0.35-0.2,0.56-0.26
				c0.15-0.04,0.39-0.08,0.7-0.12c0.63-0.08,1.1-0.17,1.4-0.27c0-0.11,0-0.18,0-0.2c0-0.32-0.07-0.54-0.22-0.67
				c-0.2-0.18-0.5-0.27-0.89-0.27c-0.37,0-0.64,0.06-0.82,0.19c-0.18,0.13-0.31,0.36-0.39,0.69l-0.77-0.1
				c0.07-0.33,0.18-0.59,0.34-0.79c0.16-0.2,0.39-0.36,0.69-0.47c0.3-0.11,0.65-0.16,1.05-0.16c0.39,0,0.71,0.05,0.96,0.14
				c0.25,0.09,0.43,0.21,0.54,0.35c0.12,0.14,0.2,0.32,0.24,0.53c0.03,0.13,0.04,0.37,0.04,0.72v1.04c0,0.73,0.02,1.19,0.05,1.38
				c0.03,0.19,0.1,0.38,0.2,0.55h-0.82C112.96,40.93,112.91,40.74,112.88,40.52z M112.82,38.77c-0.28,0.12-0.71,0.21-1.28,0.3
				c-0.32,0.05-0.55,0.1-0.68,0.16c-0.13,0.06-0.24,0.14-0.31,0.25c-0.07,0.11-0.11,0.24-0.11,0.37c0,0.21,0.08,0.38,0.24,0.52
				c0.16,0.14,0.39,0.21,0.69,0.21c0.3,0,0.57-0.07,0.8-0.2c0.24-0.13,0.41-0.31,0.52-0.54c0.08-0.18,0.13-0.44,0.13-0.78V38.77z"/>
			<path fill="#220E3D" d="M114.82,41.09v-4.62h0.71v0.66c0.34-0.51,0.83-0.76,1.47-0.76c0.28,0,0.53,0.05,0.77,0.15
				c0.23,0.1,0.41,0.23,0.52,0.39c0.12,0.16,0.2,0.36,0.24,0.58c0.03,0.14,0.04,0.4,0.04,0.76v2.84h-0.78v-2.81
				c0-0.32-0.03-0.56-0.09-0.72c-0.06-0.16-0.17-0.28-0.32-0.38c-0.16-0.09-0.34-0.14-0.55-0.14c-0.33,0-0.62,0.11-0.86,0.32
				c-0.24,0.21-0.36,0.61-0.36,1.2v2.52H114.82z"/>
			<path fill="#220E3D" d="M122.77,41.09v-0.58c-0.29,0.46-0.72,0.69-1.29,0.69c-0.37,0-0.71-0.1-1.02-0.3s-0.55-0.49-0.72-0.85
				c-0.17-0.36-0.25-0.78-0.25-1.25c0-0.46,0.08-0.88,0.23-1.25c0.15-0.38,0.38-0.66,0.69-0.86c0.31-0.2,0.65-0.3,1.03-0.3
				c0.28,0,0.53,0.06,0.74,0.18c0.22,0.12,0.39,0.27,0.53,0.46v-2.29h0.78v6.38H122.77z M120.3,38.78c0,0.59,0.12,1.03,0.37,1.33
				c0.25,0.29,0.54,0.44,0.88,0.44c0.34,0,0.63-0.14,0.87-0.42c0.24-0.28,0.36-0.71,0.36-1.28c0-0.63-0.12-1.1-0.37-1.39
				c-0.24-0.3-0.54-0.44-0.9-0.44c-0.35,0-0.64,0.14-0.87,0.43C120.42,37.72,120.3,38.17,120.3,38.78z"/>
			<path fill="#220E3D" d="M130.37,39.6l0.81,0.1c-0.13,0.47-0.36,0.84-0.71,1.1c-0.35,0.26-0.79,0.39-1.32,0.39
				c-0.68,0-1.21-0.21-1.61-0.62c-0.4-0.42-0.59-1-0.59-1.75c0-0.78,0.2-1.38,0.6-1.81c0.4-0.43,0.92-0.64,1.56-0.64
				c0.62,0,1.12,0.21,1.51,0.63s0.59,1.01,0.59,1.77c0,0.05,0,0.12,0,0.21h-3.45c0.03,0.51,0.17,0.9,0.43,1.17
				c0.26,0.27,0.58,0.4,0.97,0.4c0.29,0,0.53-0.08,0.74-0.23C130.09,40.17,130.25,39.93,130.37,39.6z M127.8,38.34h2.58
				c-0.03-0.39-0.13-0.68-0.3-0.87c-0.25-0.3-0.57-0.45-0.97-0.45c-0.36,0-0.66,0.12-0.91,0.36
				C127.96,37.61,127.82,37.93,127.8,38.34z"/>
			<path fill="#220E3D" d="M131.64,41.09l1.69-2.4l-1.56-2.22h0.98l0.71,1.08c0.13,0.21,0.24,0.38,0.32,0.52
				c0.13-0.19,0.25-0.36,0.35-0.51l0.78-1.09h0.94l-1.6,2.17l1.72,2.44H135l-0.95-1.44l-0.25-0.39l-1.21,1.82H131.64z"/>
			<path fill="#220E3D" d="M139.63,39.4l0.77,0.1c-0.08,0.53-0.3,0.95-0.65,1.25c-0.35,0.3-0.77,0.45-1.28,0.45
				c-0.63,0-1.14-0.21-1.52-0.62c-0.38-0.41-0.58-1.01-0.58-1.78c0-0.5,0.08-0.94,0.25-1.31c0.17-0.37,0.42-0.65,0.75-0.84
				c0.34-0.19,0.71-0.28,1.1-0.28c0.5,0,0.91,0.13,1.23,0.38c0.32,0.25,0.52,0.61,0.61,1.08l-0.76,0.12
				c-0.07-0.31-0.2-0.54-0.39-0.7c-0.18-0.16-0.41-0.24-0.67-0.24c-0.39,0-0.71,0.14-0.96,0.42c-0.25,0.28-0.37,0.73-0.37,1.34
				c0,0.62,0.12,1.07,0.36,1.35c0.24,0.28,0.55,0.42,0.93,0.42c0.31,0,0.56-0.09,0.77-0.28C139.44,40.08,139.57,39.79,139.63,39.4z"
				/>
			<path fill="#220E3D" d="M144.23,39.6l0.81,0.1c-0.13,0.47-0.36,0.84-0.71,1.1c-0.35,0.26-0.79,0.39-1.32,0.39
				c-0.68,0-1.21-0.21-1.61-0.62c-0.4-0.42-0.59-1-0.59-1.75c0-0.78,0.2-1.38,0.6-1.81c0.4-0.43,0.92-0.64,1.56-0.64
				c0.62,0,1.12,0.21,1.51,0.63s0.59,1.01,0.59,1.77c0,0.05,0,0.12,0,0.21h-3.45c0.03,0.51,0.17,0.9,0.43,1.17
				c0.26,0.27,0.58,0.4,0.97,0.4c0.29,0,0.53-0.08,0.74-0.23C143.95,40.17,144.11,39.93,144.23,39.6z M141.66,38.34h2.58
				c-0.03-0.39-0.13-0.68-0.3-0.87c-0.25-0.3-0.57-0.45-0.97-0.45c-0.36,0-0.66,0.12-0.91,0.36
				C141.82,37.61,141.69,37.93,141.66,38.34z"/>
			<path fill="#220E3D" d="M149.18,39.6l0.81,0.1c-0.13,0.47-0.36,0.84-0.71,1.1c-0.35,0.26-0.79,0.39-1.32,0.39
				c-0.68,0-1.21-0.21-1.61-0.62c-0.4-0.42-0.59-1-0.59-1.75c0-0.78,0.2-1.38,0.6-1.81c0.4-0.43,0.92-0.64,1.56-0.64
				c0.62,0,1.12,0.21,1.51,0.63c0.39,0.42,0.59,1.01,0.59,1.77c0,0.05,0,0.12,0,0.21h-3.45c0.03,0.51,0.17,0.9,0.43,1.17
				c0.26,0.27,0.58,0.4,0.97,0.4c0.29,0,0.53-0.08,0.74-0.23C148.9,40.17,149.07,39.93,149.18,39.6z M146.61,38.34h2.58
				c-0.03-0.39-0.13-0.68-0.3-0.87c-0.25-0.3-0.57-0.45-0.97-0.45c-0.36,0-0.66,0.12-0.91,0.36
				C146.78,37.61,146.64,37.93,146.61,38.34z"/>
			<path fill="#220E3D" d="M153.97,41.09v-0.58c-0.29,0.46-0.72,0.69-1.29,0.69c-0.37,0-0.71-0.1-1.02-0.3s-0.55-0.49-0.72-0.85
				c-0.17-0.36-0.25-0.78-0.25-1.25c0-0.46,0.08-0.88,0.23-1.25c0.15-0.38,0.38-0.66,0.69-0.86c0.31-0.2,0.65-0.3,1.03-0.3
				c0.28,0,0.53,0.06,0.74,0.18c0.22,0.12,0.39,0.27,0.53,0.46v-2.29h0.78v6.38H153.97z M151.5,38.78c0,0.59,0.12,1.03,0.37,1.33
				c0.25,0.29,0.54,0.44,0.88,0.44c0.34,0,0.63-0.14,0.87-0.42c0.24-0.28,0.36-0.71,0.36-1.28c0-0.63-0.12-1.1-0.37-1.39
				c-0.24-0.3-0.54-0.44-0.9-0.44c-0.35,0-0.64,0.14-0.87,0.43C151.61,37.72,151.5,38.17,151.5,38.78z"/>
			<path fill="#220E3D" d="M158.26,41.47l0.76,0.11c0.03,0.24,0.12,0.41,0.27,0.51c0.19,0.14,0.46,0.22,0.8,0.22
				c0.36,0,0.64-0.07,0.84-0.22c0.2-0.15,0.33-0.35,0.4-0.61c0.04-0.16,0.06-0.49,0.06-1c-0.34,0.4-0.77,0.6-1.28,0.6
				c-0.63,0-1.13-0.23-1.47-0.69c-0.35-0.46-0.52-1.01-0.52-1.65c0-0.44,0.08-0.85,0.24-1.22c0.16-0.37,0.39-0.66,0.69-0.86
				c0.3-0.2,0.66-0.3,1.07-0.3c0.55,0,0.99,0.22,1.35,0.66v-0.56h0.72v3.99c0,0.72-0.07,1.23-0.22,1.53
				c-0.15,0.3-0.38,0.54-0.7,0.71c-0.32,0.17-0.71,0.26-1.17,0.26c-0.55,0-1-0.12-1.34-0.37C158.41,42.34,158.25,41.97,158.26,41.47
				z M158.91,38.7c0,0.61,0.12,1.05,0.36,1.33c0.24,0.28,0.54,0.42,0.9,0.42c0.36,0,0.66-0.14,0.9-0.42
				c0.24-0.28,0.37-0.71,0.37-1.3c0-0.57-0.13-0.99-0.38-1.28c-0.25-0.29-0.55-0.43-0.91-0.43c-0.35,0-0.64,0.14-0.89,0.42
				C159.03,37.72,158.91,38.14,158.91,38.7z"/>
			<path fill="#220E3D" d="M163.07,38.78c0-0.86,0.24-1.49,0.71-1.9c0.4-0.34,0.88-0.51,1.45-0.51c0.63,0,1.15,0.21,1.56,0.62
				c0.4,0.42,0.6,0.99,0.6,1.72c0,0.59-0.09,1.06-0.27,1.4c-0.18,0.34-0.44,0.61-0.78,0.79s-0.71,0.28-1.12,0.28
				c-0.65,0-1.17-0.21-1.57-0.62C163.27,40.16,163.07,39.56,163.07,38.78z M163.87,38.78c0,0.59,0.13,1.03,0.39,1.33
				c0.26,0.29,0.58,0.44,0.97,0.44c0.39,0,0.71-0.15,0.97-0.44c0.26-0.3,0.39-0.75,0.39-1.35c0-0.57-0.13-1-0.39-1.3
				c-0.26-0.29-0.58-0.44-0.97-0.44c-0.39,0-0.72,0.15-0.97,0.44C164,37.75,163.87,38.19,163.87,38.78z"/>
			<path fill="#220E3D" d="M171.33,40.52c-0.29,0.25-0.57,0.42-0.84,0.52c-0.27,0.1-0.56,0.15-0.86,0.15c-0.51,0-0.9-0.12-1.17-0.37
				c-0.27-0.25-0.41-0.56-0.41-0.95c0-0.23,0.05-0.43,0.15-0.62c0.1-0.19,0.24-0.34,0.4-0.45c0.17-0.11,0.35-0.2,0.56-0.26
				c0.15-0.04,0.39-0.08,0.7-0.12c0.63-0.08,1.1-0.17,1.4-0.27c0-0.11,0-0.18,0-0.2c0-0.32-0.07-0.54-0.22-0.67
				c-0.2-0.18-0.5-0.27-0.89-0.27c-0.37,0-0.64,0.06-0.82,0.19c-0.18,0.13-0.31,0.36-0.39,0.69l-0.77-0.1
				c0.07-0.33,0.18-0.59,0.34-0.79c0.16-0.2,0.39-0.36,0.69-0.47c0.3-0.11,0.65-0.16,1.05-0.16c0.39,0,0.71,0.05,0.96,0.14
				c0.25,0.09,0.43,0.21,0.54,0.35c0.12,0.14,0.2,0.32,0.24,0.53c0.03,0.13,0.04,0.37,0.04,0.72v1.04c0,0.73,0.02,1.19,0.05,1.38
				c0.03,0.19,0.1,0.38,0.2,0.55h-0.82C171.4,40.93,171.35,40.74,171.33,40.52z M171.26,38.77c-0.28,0.12-0.71,0.21-1.28,0.3
				c-0.32,0.05-0.55,0.1-0.68,0.16c-0.13,0.06-0.24,0.14-0.31,0.25c-0.07,0.11-0.11,0.24-0.11,0.37c0,0.21,0.08,0.38,0.24,0.52
				c0.16,0.14,0.39,0.21,0.69,0.21c0.3,0,0.57-0.07,0.8-0.2c0.24-0.13,0.41-0.31,0.52-0.54c0.08-0.18,0.13-0.44,0.13-0.78V38.77z"/>
			<path fill="#220E3D" d="M173.25,41.09v-6.38h0.78v6.38H173.25z"/>
			<path fill="#220E3D" d="M174.93,39.71l0.77-0.12c0.04,0.31,0.16,0.55,0.36,0.71c0.2,0.17,0.48,0.25,0.83,0.25
				c0.36,0,0.63-0.07,0.8-0.22c0.17-0.15,0.26-0.32,0.26-0.52c0-0.18-0.08-0.32-0.23-0.42c-0.11-0.07-0.37-0.16-0.8-0.27
				c-0.57-0.14-0.97-0.27-1.19-0.38c-0.22-0.11-0.39-0.25-0.5-0.44c-0.11-0.19-0.17-0.39-0.17-0.62c0-0.21,0.05-0.4,0.14-0.57
				c0.09-0.18,0.22-0.32,0.39-0.44c0.12-0.09,0.29-0.17,0.5-0.23c0.21-0.06,0.44-0.09,0.68-0.09c0.36,0,0.68,0.05,0.95,0.16
				c0.27,0.1,0.48,0.25,0.61,0.42s0.22,0.42,0.27,0.72l-0.77,0.1c-0.03-0.24-0.14-0.42-0.3-0.56c-0.17-0.13-0.4-0.2-0.71-0.2
				c-0.36,0-0.62,0.06-0.77,0.18s-0.23,0.26-0.23,0.42c0,0.1,0.03,0.19,0.1,0.27c0.06,0.08,0.16,0.15,0.3,0.21
				c0.08,0.03,0.31,0.1,0.69,0.2c0.55,0.15,0.94,0.27,1.16,0.36c0.22,0.09,0.39,0.23,0.52,0.41c0.12,0.18,0.19,0.4,0.19,0.67
				c0,0.26-0.08,0.51-0.23,0.74c-0.15,0.23-0.37,0.41-0.66,0.54c-0.29,0.13-0.61,0.19-0.97,0.19c-0.6,0-1.06-0.12-1.37-0.37
				C175.22,40.57,175.02,40.2,174.93,39.71z"/>
			<path fill="#220E3D" d="M179.92,41.09V40.2h0.89v0.89H179.92z"/>
		</g>
	</g>
	<g>
		<linearGradient id="SVGID_1_" gradientUnits="userSpaceOnUse" x1="5.9467" y1="59.1908" x2="55.0296" y2="10.1079">
			<stop  offset="1.274966e-07" style="stop-color:#2312F0"/>
			<stop  offset="0.153" style="stop-color:#2216F0"/>
			<stop  offset="0.304" style="stop-color:#2022F1"/>
			<stop  offset="0.4543" style="stop-color:#1C36F2"/>
			<stop  offset="0.6042" style="stop-color:#1651F4"/>
			<stop  offset="0.7539" style="stop-color:#0F75F6"/>
			<stop  offset="0.9013" style="stop-color:#07A1F9"/>
			<stop  offset="1" style="stop-color:#00C2FB"/>
		</linearGradient>
		<polygon fill="url(#SVGID_1_)" points="41.89,33.51 41.89,10.96 19.34,10.96 19.34,19.55 26.47,19.55 0,53 46.98,53 46.98,43.13 
			22.65,43.13 33.27,26.4 33.27,33.51 		"/>
		<linearGradient id="SVGID_2_" gradientUnits="userSpaceOnUse" x1="-5.7461" y1="47.6403" x2="43.3379" y2="-1.4437">
			<stop  offset="1.274966e-07" style="stop-color:#2312F0"/>
			<stop  offset="0.153" style="stop-color:#2216F0"/>
			<stop  offset="0.304" style="stop-color:#2022F1"/>
			<stop  offset="0.4543" style="stop-color:#1C36F2"/>
			<stop  offset="0.6042" style="stop-color:#1651F4"/>
			<stop  offset="0.7539" style="stop-color:#0F75F6"/>
			<stop  offset="0.9013" style="stop-color:#07A1F9"/>
			<stop  offset="1" style="stop-color:#00C2FB"/>
		</linearGradient>
		<rect x="33.27" fill="url(#SVGID_2_)" width="8.62" height="8.62"/>
		<linearGradient id="SVGID_3_" gradientUnits="userSpaceOnUse" x1="5.426" y1="58.5296" x2="54.51" y2="9.4456">
			<stop  offset="1.274966e-07" style="stop-color:#2312F0"/>
			<stop  offset="0.153" style="stop-color:#2216F0"/>
			<stop  offset="0.304" style="stop-color:#2022F1"/>
			<stop  offset="0.4543" style="stop-color:#1C36F2"/>
			<stop  offset="0.6042" style="stop-color:#1651F4"/>
			<stop  offset="0.7539" style="stop-color:#0F75F6"/>
			<stop  offset="0.9013" style="stop-color:#07A1F9"/>
			<stop  offset="1" style="stop-color:#00C2FB"/>
		</linearGradient>
		<rect x="44.38" y="10.96" fill="url(#SVGID_3_)" width="8.62" height="8.62"/>
	</g>
</g>
</svg>
